<svg width="57" height="56" viewBox="0 0 57 56" fill="none" xmlns="http://www.w3.org/2000/svg">
<rect x="0.135986" width="56" height="56" rx="28" fill="#0047BA"/>
<path d="M33.5639 32.1553L37.4186 36.0091L36.1451 37.2826L32.2913 33.4279C30.8574 34.5774 29.0738 35.2026 27.236 35.2C22.7648 35.2 19.136 31.5712 19.136 27.1C19.136 22.6288 22.7648 19 27.236 19C31.7072 19 35.336 22.6288 35.336 27.1C35.3386 28.9378 34.7134 30.7214 33.5639 32.1553ZM31.7585 31.4875C32.9007 30.3129 33.5386 28.7384 33.536 27.1C33.536 23.6188 30.7163 20.8 27.236 20.8C23.7548 20.8 20.936 23.6188 20.936 27.1C20.936 30.5803 23.7548 33.4 27.236 33.4C28.8744 33.4026 30.4489 32.7647 31.6235 31.6225L31.7585 31.4875Z" fill="white"/>
</svg>
